<?xml version="1.0" encoding="UTF-8"?>
<svg id="Layer_1" data-name="Layer 1" xmlns="http://www.w3.org/2000/svg" viewBox="0 0 438.98 238.33">
  <defs>
    <style>
      .cls-1, .cls-2 {
        fill: #000e9c;
        stroke-width: 0px;
      }

      .cls-2 {
        fill-rule: evenodd;
      }
    </style>
  </defs>
  <path class="cls-2" d="M272.42,42.2c12.81,23.06,10.41,51.57-6.07,72.17h-34.78l10.71-18.92h-14.16l16.69-29.44h14.26l13.36-23.8h0ZM203.73,114.37h-35.46c-16.78-20.53-19.22-49.27-6.15-72.34l23,39.96,25.36-44.16h37.33l-44.06,76.51h0l-.02.02h0Z"/>
  <g>
    <path class="cls-1" d="M49.43,171.31c0-20.41,10.16-30.23,26.87-30.23s26.87,9.82,26.87,30.23-10.16,30.14-26.87,30.14-26.87-9.9-26.87-30.14ZM55.46,171.31c0,16.79,7.66,24.8,20.84,24.8s20.84-8.01,20.84-24.8-7.66-24.89-20.84-24.89-20.84,8.01-20.84,24.89Z"/>
    <path class="cls-1" d="M147.08,143.5c.26-.69,1.12-1.89,2.76-1.89s2.93,1.29,2.93,2.93c0,.52-.17,1.03-.26,1.29l-20.15,53.13c-.43,1.21-1.64,1.98-2.76,1.98s-2.33-.78-2.76-1.98l-20.15-53.13c-.09-.26-.26-.78-.26-1.29,0-1.64,1.29-2.93,2.93-2.93s2.5,1.21,2.76,1.89l17.48,46.33,17.48-46.33Z"/>
    <path class="cls-1" d="M165,173.21v24.8c0,1.55-1.29,2.93-2.93,2.93s-2.93-1.38-2.93-2.93v-53.48c0-1.55,1.29-2.93,2.93-2.93s2.93,1.38,2.93,2.93v23.34h29.97v-23.34c0-1.55,1.29-2.93,2.93-2.93s2.93,1.38,2.93,2.93v53.48c0,1.55-1.29,2.93-2.93,2.93s-2.93-1.38-2.93-2.93v-24.8h-29.97Z"/>
    <path class="cls-1" d="M228.46,159.94c7.66,0,11.88,4.05,13.26,5.94.43.6.6,1.03.6,1.64,0,1.46-1.12,2.5-2.5,2.5-.86,0-1.46-.34-2.07-1.03-1.29-1.46-3.62-4.05-9.3-4.05-7.92,0-12.14,5.08-12.14,15.67s4.22,15.76,12.14,15.76c5,0,8.01-2.24,9.99-3.7.6-.43,1.03-.6,1.64-.6,1.38,0,2.5,1.12,2.5,2.5,0,.78-.26,1.38-1.12,2.15-1.89,1.55-6.03,4.65-13,4.65-11.11,0-17.74-6.63-17.74-20.75s6.63-20.67,17.74-20.67Z"/>
    <path class="cls-1" d="M255.94,141.69v49.17c0,3.44,1.12,4.91,3.45,4.91,1.38,0,2.58,1.12,2.58,2.58s-1.21,2.58-2.58,2.58c-5.77,0-8.96-3.44-8.96-10.08v-49.17c0-1.46,1.29-2.76,2.76-2.76,1.55,0,2.76,1.29,2.76,2.76Z"/>
    <path class="cls-1" d="M302.87,180.61c0,14.12-6.89,20.75-18.08,20.75s-18.08-6.63-18.08-20.75,6.98-20.67,18.08-20.67,18.08,6.54,18.08,20.67ZM297.27,180.61c0-10.85-4.57-15.67-12.49-15.67s-12.49,4.82-12.49,15.67,4.56,15.76,12.49,15.76,12.49-4.74,12.49-15.76Z"/>
    <path class="cls-1" d="M316.13,163.22v22.47c0,5.6,1.81,10.42,10.51,10.42s10.51-4.82,10.51-10.42v-22.47c0-1.55,1.29-2.76,2.84-2.76,1.46,0,2.67,1.21,2.67,2.76v22.47c0,8.18-2.67,15.67-16.02,15.67s-16.02-7.49-16.02-15.67v-22.47c0-1.55,1.21-2.76,2.76-2.76,1.46,0,2.76,1.21,2.76,2.76Z"/>
    <path class="cls-1" d="M379.43,165.54v-23.85c0-1.55,1.21-2.76,2.76-2.76s2.76,1.21,2.76,2.76v42.71c0,11.37-7.06,16.96-16.88,16.96-11.11,0-17.65-6.63-17.65-20.75s6.2-20.67,17.31-20.67c5.51,0,9.73,2.84,11.71,5.6ZM379.43,172.52s-3.27-7.58-11.37-7.58-12.14,5.08-12.14,15.67,4.22,15.76,12.14,15.76c6.63,0,11.37-3.79,11.37-11.97v-11.88Z"/>
  </g>
</svg>